<mxfile host="app.diagrams.net" agent="Mozilla/5.0 (Windows NT 10.0; Win64; x64) AppleWebKit/537.36 (KHTML, like Gecko) Chrome/127.0.0.0 Safari/537.36 Edg/127.0.0.0" version="24.7.5">
  <diagram name="第 1 页" id="3Ep31RJp3vlBfozrUrYt">
    <mxGraphModel dx="1209" dy="681" grid="1" gridSize="10" guides="1" tooltips="1" connect="1" arrows="1" fold="1" page="1" pageScale="1" pageWidth="827" pageHeight="1169" math="0" shadow="0">
      <root>
        <mxCell id="0" />
        <mxCell id="1" parent="0" />
        <mxCell id="O3HgVME_zuuWC6tg6e7_-14" value="" style="edgeStyle=orthogonalEdgeStyle;rounded=0;orthogonalLoop=1;jettySize=auto;html=1;curved=1;" parent="1" source="O3HgVME_zuuWC6tg6e7_-1" target="O3HgVME_zuuWC6tg6e7_-12" edge="1">
          <mxGeometry relative="1" as="geometry" />
        </mxCell>
        <mxCell id="O3HgVME_zuuWC6tg6e7_-1" value="Teacher" style="rounded=0;whiteSpace=wrap;html=1;fillColor=#f8cecc;strokeColor=#b85450;" parent="1" vertex="1">
          <mxGeometry x="160" y="200" width="120" height="60" as="geometry" />
        </mxCell>
        <mxCell id="O3HgVME_zuuWC6tg6e7_-13" value="" style="edgeStyle=orthogonalEdgeStyle;rounded=0;orthogonalLoop=1;jettySize=auto;html=1;curved=1;" parent="1" source="O3HgVME_zuuWC6tg6e7_-2" target="O3HgVME_zuuWC6tg6e7_-7" edge="1">
          <mxGeometry relative="1" as="geometry" />
        </mxCell>
        <mxCell id="O3HgVME_zuuWC6tg6e7_-2" value="WildResNet-101&lt;div&gt;...&lt;/div&gt;" style="rounded=0;whiteSpace=wrap;html=1;fillColor=#dae8fc;strokeColor=#6c8ebf;" parent="1" vertex="1">
          <mxGeometry x="160" y="90" width="120" height="60" as="geometry" />
        </mxCell>
        <mxCell id="O3HgVME_zuuWC6tg6e7_-17" style="edgeStyle=orthogonalEdgeStyle;rounded=0;orthogonalLoop=1;jettySize=auto;html=1;exitX=0.25;exitY=1;exitDx=0;exitDy=0;entryX=1;entryY=0.25;entryDx=0;entryDy=0;curved=1;dashed=1;" parent="1" source="O3HgVME_zuuWC6tg6e7_-3" target="O3HgVME_zuuWC6tg6e7_-12" edge="1">
          <mxGeometry relative="1" as="geometry" />
        </mxCell>
        <mxCell id="O3HgVME_zuuWC6tg6e7_-3" value="L&lt;sub&gt;pre&lt;/sub&gt;" style="text;html=1;align=center;verticalAlign=middle;whiteSpace=wrap;rounded=0;" parent="1" vertex="1">
          <mxGeometry x="400" y="150" width="60" height="30" as="geometry" />
        </mxCell>
        <mxCell id="O3HgVME_zuuWC6tg6e7_-8" value="" style="group;" parent="1" vertex="1" connectable="0">
          <mxGeometry x="330" y="100" width="40" height="40" as="geometry" />
        </mxCell>
        <mxCell id="O3HgVME_zuuWC6tg6e7_-5" value="" style="rounded=0;whiteSpace=wrap;html=1;fillColor=#dae8fc;strokeColor=#6c8ebf;" parent="O3HgVME_zuuWC6tg6e7_-8" vertex="1">
          <mxGeometry width="34.28571428571429" height="30" as="geometry" />
        </mxCell>
        <mxCell id="O3HgVME_zuuWC6tg6e7_-6" value="" style="rounded=0;whiteSpace=wrap;html=1;fillColor=#dae8fc;strokeColor=#6c8ebf;" parent="O3HgVME_zuuWC6tg6e7_-8" vertex="1">
          <mxGeometry x="2.8571428571428577" y="5" width="34.28571428571429" height="30" as="geometry" />
        </mxCell>
        <mxCell id="O3HgVME_zuuWC6tg6e7_-7" value="" style="rounded=0;whiteSpace=wrap;html=1;fillColor=#dae8fc;strokeColor=#6c8ebf;" parent="O3HgVME_zuuWC6tg6e7_-8" vertex="1">
          <mxGeometry x="5.714285714285715" y="10" width="34.28571428571429" height="30" as="geometry" />
        </mxCell>
        <mxCell id="O3HgVME_zuuWC6tg6e7_-9" value="" style="group;" parent="1" vertex="1" connectable="0">
          <mxGeometry x="340" y="200" width="40" height="40" as="geometry" />
        </mxCell>
        <mxCell id="O3HgVME_zuuWC6tg6e7_-10" value="" style="rounded=0;whiteSpace=wrap;html=1;fillColor=#f8cecc;strokeColor=#b85450;" parent="O3HgVME_zuuWC6tg6e7_-9" vertex="1">
          <mxGeometry width="34.28571428571429" height="30" as="geometry" />
        </mxCell>
        <mxCell id="O3HgVME_zuuWC6tg6e7_-11" value="" style="rounded=0;whiteSpace=wrap;html=1;fillColor=#f8cecc;strokeColor=#b85450;" parent="O3HgVME_zuuWC6tg6e7_-9" vertex="1">
          <mxGeometry x="2.8571428571428577" y="5" width="34.28571428571429" height="30" as="geometry" />
        </mxCell>
        <mxCell id="O3HgVME_zuuWC6tg6e7_-12" value="" style="rounded=0;whiteSpace=wrap;html=1;fillColor=#f8cecc;strokeColor=#b85450;" parent="O3HgVME_zuuWC6tg6e7_-9" vertex="1">
          <mxGeometry x="5.714285714285715" y="10" width="34.28571428571429" height="30" as="geometry" />
        </mxCell>
        <mxCell id="O3HgVME_zuuWC6tg6e7_-15" style="edgeStyle=orthogonalEdgeStyle;rounded=0;orthogonalLoop=1;jettySize=auto;html=1;exitX=1;exitY=0.5;exitDx=0;exitDy=0;curved=1;" parent="1" source="O3HgVME_zuuWC6tg6e7_-7" target="O3HgVME_zuuWC6tg6e7_-3" edge="1">
          <mxGeometry relative="1" as="geometry" />
        </mxCell>
        <mxCell id="O3HgVME_zuuWC6tg6e7_-16" style="edgeStyle=orthogonalEdgeStyle;rounded=0;orthogonalLoop=1;jettySize=auto;html=1;exitX=1;exitY=0.5;exitDx=0;exitDy=0;entryX=0.5;entryY=1;entryDx=0;entryDy=0;curved=1;" parent="1" source="O3HgVME_zuuWC6tg6e7_-12" target="O3HgVME_zuuWC6tg6e7_-3" edge="1">
          <mxGeometry relative="1" as="geometry" />
        </mxCell>
        <mxCell id="O3HgVME_zuuWC6tg6e7_-18" style="edgeStyle=orthogonalEdgeStyle;rounded=0;orthogonalLoop=1;jettySize=auto;html=1;entryX=1;entryY=0.25;entryDx=0;entryDy=0;dashed=1;" parent="1" source="O3HgVME_zuuWC6tg6e7_-10" target="O3HgVME_zuuWC6tg6e7_-1" edge="1">
          <mxGeometry relative="1" as="geometry" />
        </mxCell>
        <mxCell id="O3HgVME_zuuWC6tg6e7_-54" style="edgeStyle=orthogonalEdgeStyle;rounded=0;orthogonalLoop=1;jettySize=auto;html=1;entryX=0;entryY=0.5;entryDx=0;entryDy=0;curved=1;" parent="1" source="O3HgVME_zuuWC6tg6e7_-19" target="O3HgVME_zuuWC6tg6e7_-47" edge="1">
          <mxGeometry relative="1" as="geometry" />
        </mxCell>
        <mxCell id="O3HgVME_zuuWC6tg6e7_-19" value="Teacher" style="rounded=0;whiteSpace=wrap;html=1;fillColor=#f8cecc;strokeColor=#b85450;" parent="1" vertex="1">
          <mxGeometry x="150" y="340" width="120" height="60" as="geometry" />
        </mxCell>
        <mxCell id="O3HgVME_zuuWC6tg6e7_-40" style="edgeStyle=orthogonalEdgeStyle;rounded=0;orthogonalLoop=1;jettySize=auto;html=1;exitX=1;exitY=0.5;exitDx=0;exitDy=0;entryX=0;entryY=0.75;entryDx=0;entryDy=0;curved=1;" parent="1" source="O3HgVME_zuuWC6tg6e7_-20" target="O3HgVME_zuuWC6tg6e7_-35" edge="1">
          <mxGeometry relative="1" as="geometry" />
        </mxCell>
        <mxCell id="O3HgVME_zuuWC6tg6e7_-41" style="edgeStyle=orthogonalEdgeStyle;rounded=0;orthogonalLoop=1;jettySize=auto;html=1;entryX=0;entryY=0.75;entryDx=0;entryDy=0;curved=1;" parent="1" source="O3HgVME_zuuWC6tg6e7_-20" target="O3HgVME_zuuWC6tg6e7_-31" edge="1">
          <mxGeometry relative="1" as="geometry" />
        </mxCell>
        <mxCell id="O3HgVME_zuuWC6tg6e7_-20" value="Student" style="rounded=0;whiteSpace=wrap;html=1;fillColor=#f8cecc;strokeColor=#b85450;" parent="1" vertex="1">
          <mxGeometry x="150" y="525" width="120" height="60" as="geometry" />
        </mxCell>
        <mxCell id="O3HgVME_zuuWC6tg6e7_-53" style="edgeStyle=orthogonalEdgeStyle;rounded=0;orthogonalLoop=1;jettySize=auto;html=1;exitX=1;exitY=0.5;exitDx=0;exitDy=0;entryX=0;entryY=0.75;entryDx=0;entryDy=0;curved=1;" parent="1" source="O3HgVME_zuuWC6tg6e7_-21" target="O3HgVME_zuuWC6tg6e7_-43" edge="1">
          <mxGeometry relative="1" as="geometry" />
        </mxCell>
        <mxCell id="O3HgVME_zuuWC6tg6e7_-21" value="Autoencoder" style="rounded=0;whiteSpace=wrap;html=1;fillColor=#e1d5e7;strokeColor=#9673a6;" parent="1" vertex="1">
          <mxGeometry x="150" y="430" width="120" height="60" as="geometry" />
        </mxCell>
        <mxCell id="O3HgVME_zuuWC6tg6e7_-67" value="" style="edgeStyle=orthogonalEdgeStyle;rounded=0;orthogonalLoop=1;jettySize=auto;html=1;" parent="1" source="O3HgVME_zuuWC6tg6e7_-22" target="O3HgVME_zuuWC6tg6e7_-66" edge="1">
          <mxGeometry relative="1" as="geometry" />
        </mxCell>
        <mxCell id="O3HgVME_zuuWC6tg6e7_-22" value="" style="html=1;verticalLabelPosition=bottom;align=center;labelBackgroundColor=#ffffff;verticalAlign=top;strokeWidth=2;strokeColor=#0080F0;shadow=0;dashed=0;shape=mxgraph.ios7.icons.add;" parent="1" vertex="1">
          <mxGeometry x="620" y="445" width="30" height="30" as="geometry" />
        </mxCell>
        <mxCell id="O3HgVME_zuuWC6tg6e7_-24" style="edgeStyle=orthogonalEdgeStyle;rounded=0;orthogonalLoop=1;jettySize=auto;html=1;exitX=1;exitY=0.5;exitDx=0;exitDy=0;entryX=0;entryY=0.5;entryDx=0;entryDy=0;" parent="1" source="O3HgVME_zuuWC6tg6e7_-23" target="O3HgVME_zuuWC6tg6e7_-2" edge="1">
          <mxGeometry relative="1" as="geometry" />
        </mxCell>
        <mxCell id="O3HgVME_zuuWC6tg6e7_-25" style="edgeStyle=orthogonalEdgeStyle;rounded=0;orthogonalLoop=1;jettySize=auto;html=1;entryX=0;entryY=0.5;entryDx=0;entryDy=0;" parent="1" source="O3HgVME_zuuWC6tg6e7_-23" target="O3HgVME_zuuWC6tg6e7_-1" edge="1">
          <mxGeometry relative="1" as="geometry" />
        </mxCell>
        <mxCell id="O3HgVME_zuuWC6tg6e7_-23" value="I" style="rounded=0;whiteSpace=wrap;html=1;" parent="1" vertex="1">
          <mxGeometry x="60.00428571428574" y="160" width="34.28571428571429" height="30" as="geometry" />
        </mxCell>
        <mxCell id="O3HgVME_zuuWC6tg6e7_-27" style="edgeStyle=orthogonalEdgeStyle;rounded=0;orthogonalLoop=1;jettySize=auto;html=1;entryX=0;entryY=0.5;entryDx=0;entryDy=0;curved=1;" parent="1" source="O3HgVME_zuuWC6tg6e7_-26" target="O3HgVME_zuuWC6tg6e7_-21" edge="1">
          <mxGeometry relative="1" as="geometry" />
        </mxCell>
        <mxCell id="O3HgVME_zuuWC6tg6e7_-28" style="edgeStyle=orthogonalEdgeStyle;rounded=0;orthogonalLoop=1;jettySize=auto;html=1;entryX=0;entryY=0.5;entryDx=0;entryDy=0;curved=1;" parent="1" source="O3HgVME_zuuWC6tg6e7_-26" target="O3HgVME_zuuWC6tg6e7_-19" edge="1">
          <mxGeometry relative="1" as="geometry" />
        </mxCell>
        <mxCell id="O3HgVME_zuuWC6tg6e7_-29" style="edgeStyle=orthogonalEdgeStyle;rounded=0;orthogonalLoop=1;jettySize=auto;html=1;entryX=0;entryY=0.5;entryDx=0;entryDy=0;curved=1;" parent="1" source="O3HgVME_zuuWC6tg6e7_-26" target="O3HgVME_zuuWC6tg6e7_-20" edge="1">
          <mxGeometry relative="1" as="geometry" />
        </mxCell>
        <mxCell id="O3HgVME_zuuWC6tg6e7_-26" value="I" style="rounded=0;whiteSpace=wrap;html=1;" parent="1" vertex="1">
          <mxGeometry x="50.00428571428574" y="445" width="34.28571428571429" height="30" as="geometry" />
        </mxCell>
        <mxCell id="O3HgVME_zuuWC6tg6e7_-30" value="" style="group;" parent="1" vertex="1" connectable="0">
          <mxGeometry x="330" y="565" width="40" height="40" as="geometry" />
        </mxCell>
        <mxCell id="O3HgVME_zuuWC6tg6e7_-31" value="" style="rounded=0;whiteSpace=wrap;html=1;fillColor=#f8cecc;strokeColor=#b85450;" parent="O3HgVME_zuuWC6tg6e7_-30" vertex="1">
          <mxGeometry width="34.28571428571429" height="30" as="geometry" />
        </mxCell>
        <mxCell id="O3HgVME_zuuWC6tg6e7_-32" value="" style="rounded=0;whiteSpace=wrap;html=1;fillColor=#f8cecc;strokeColor=#b85450;" parent="O3HgVME_zuuWC6tg6e7_-30" vertex="1">
          <mxGeometry x="2.8571428571428577" y="5" width="34.28571428571429" height="30" as="geometry" />
        </mxCell>
        <mxCell id="O3HgVME_zuuWC6tg6e7_-33" value="" style="rounded=0;whiteSpace=wrap;html=1;fillColor=#f8cecc;strokeColor=#b85450;" parent="O3HgVME_zuuWC6tg6e7_-30" vertex="1">
          <mxGeometry x="5.714285714285715" y="10" width="34.28571428571429" height="30" as="geometry" />
        </mxCell>
        <mxCell id="O3HgVME_zuuWC6tg6e7_-34" value="" style="group;" parent="1" vertex="1" connectable="0">
          <mxGeometry x="330" y="510" width="40" height="40" as="geometry" />
        </mxCell>
        <mxCell id="O3HgVME_zuuWC6tg6e7_-35" value="" style="rounded=0;whiteSpace=wrap;html=1;fillColor=#f8cecc;strokeColor=#b85450;" parent="O3HgVME_zuuWC6tg6e7_-34" vertex="1">
          <mxGeometry width="34.28571428571429" height="30" as="geometry" />
        </mxCell>
        <mxCell id="O3HgVME_zuuWC6tg6e7_-36" value="" style="rounded=0;whiteSpace=wrap;html=1;fillColor=#f8cecc;strokeColor=#b85450;" parent="O3HgVME_zuuWC6tg6e7_-34" vertex="1">
          <mxGeometry x="2.8571428571428577" y="5" width="34.28571428571429" height="30" as="geometry" />
        </mxCell>
        <mxCell id="O3HgVME_zuuWC6tg6e7_-37" value="" style="rounded=0;whiteSpace=wrap;html=1;fillColor=#f8cecc;strokeColor=#b85450;" parent="O3HgVME_zuuWC6tg6e7_-34" vertex="1">
          <mxGeometry x="5.714285714285715" y="10" width="34.28571428571429" height="30" as="geometry" />
        </mxCell>
        <mxCell id="O3HgVME_zuuWC6tg6e7_-38" style="edgeStyle=orthogonalEdgeStyle;rounded=0;orthogonalLoop=1;jettySize=auto;html=1;exitX=0;exitY=0.5;exitDx=0;exitDy=0;entryX=1;entryY=0.25;entryDx=0;entryDy=0;curved=1;dashed=1;" parent="1" source="O3HgVME_zuuWC6tg6e7_-35" target="O3HgVME_zuuWC6tg6e7_-20" edge="1">
          <mxGeometry relative="1" as="geometry" />
        </mxCell>
        <mxCell id="O3HgVME_zuuWC6tg6e7_-39" style="edgeStyle=orthogonalEdgeStyle;rounded=0;orthogonalLoop=1;jettySize=auto;html=1;exitX=0;exitY=0.5;exitDx=0;exitDy=0;entryX=1;entryY=0.25;entryDx=0;entryDy=0;curved=1;dashed=1;" parent="1" source="O3HgVME_zuuWC6tg6e7_-31" target="O3HgVME_zuuWC6tg6e7_-20" edge="1">
          <mxGeometry relative="1" as="geometry" />
        </mxCell>
        <mxCell id="O3HgVME_zuuWC6tg6e7_-42" value="" style="group;" parent="1" vertex="1" connectable="0">
          <mxGeometry x="330" y="440" width="40" height="40" as="geometry" />
        </mxCell>
        <mxCell id="O3HgVME_zuuWC6tg6e7_-43" value="" style="rounded=0;whiteSpace=wrap;html=1;fillColor=#e1d5e7;strokeColor=#9673a6;" parent="O3HgVME_zuuWC6tg6e7_-42" vertex="1">
          <mxGeometry width="34.28571428571429" height="30" as="geometry" />
        </mxCell>
        <mxCell id="O3HgVME_zuuWC6tg6e7_-44" value="" style="rounded=0;whiteSpace=wrap;html=1;fillColor=#e1d5e7;strokeColor=#9673a6;" parent="O3HgVME_zuuWC6tg6e7_-42" vertex="1">
          <mxGeometry x="2.8571428571428577" y="5" width="34.28571428571429" height="30" as="geometry" />
        </mxCell>
        <mxCell id="O3HgVME_zuuWC6tg6e7_-45" value="" style="rounded=0;whiteSpace=wrap;html=1;fillColor=#e1d5e7;strokeColor=#9673a6;" parent="O3HgVME_zuuWC6tg6e7_-42" vertex="1">
          <mxGeometry x="5.714285714285715" y="10" width="34.28571428571429" height="30" as="geometry" />
        </mxCell>
        <mxCell id="O3HgVME_zuuWC6tg6e7_-46" value="" style="group;" parent="1" vertex="1" connectable="0">
          <mxGeometry x="330" y="340" width="40" height="40" as="geometry" />
        </mxCell>
        <mxCell id="O3HgVME_zuuWC6tg6e7_-47" value="" style="rounded=0;whiteSpace=wrap;html=1;fillColor=#f8cecc;strokeColor=#b85450;" parent="O3HgVME_zuuWC6tg6e7_-46" vertex="1">
          <mxGeometry width="34.28571428571429" height="30" as="geometry" />
        </mxCell>
        <mxCell id="O3HgVME_zuuWC6tg6e7_-48" value="" style="rounded=0;whiteSpace=wrap;html=1;fillColor=#f8cecc;strokeColor=#b85450;" parent="O3HgVME_zuuWC6tg6e7_-46" vertex="1">
          <mxGeometry x="2.8571428571428577" y="5" width="34.28571428571429" height="30" as="geometry" />
        </mxCell>
        <mxCell id="O3HgVME_zuuWC6tg6e7_-49" value="" style="rounded=0;whiteSpace=wrap;html=1;fillColor=#f8cecc;strokeColor=#b85450;" parent="O3HgVME_zuuWC6tg6e7_-46" vertex="1">
          <mxGeometry x="5.714285714285715" y="10" width="34.28571428571429" height="30" as="geometry" />
        </mxCell>
        <mxCell id="O3HgVME_zuuWC6tg6e7_-51" value="L&lt;span style=&quot;font-size: 10px;&quot;&gt;st&lt;/span&gt;" style="text;html=1;align=center;verticalAlign=middle;whiteSpace=wrap;rounded=0;" parent="1" vertex="1">
          <mxGeometry x="490" y="350" width="60" height="30" as="geometry" />
        </mxCell>
        <mxCell id="O3HgVME_zuuWC6tg6e7_-52" style="edgeStyle=orthogonalEdgeStyle;rounded=0;orthogonalLoop=1;jettySize=auto;html=1;exitX=0;exitY=0.25;exitDx=0;exitDy=0;entryX=1;entryY=0.25;entryDx=0;entryDy=0;curved=1;dashed=1;" parent="1" source="O3HgVME_zuuWC6tg6e7_-43" target="O3HgVME_zuuWC6tg6e7_-21" edge="1">
          <mxGeometry relative="1" as="geometry" />
        </mxCell>
        <mxCell id="O3HgVME_zuuWC6tg6e7_-55" style="edgeStyle=orthogonalEdgeStyle;rounded=0;orthogonalLoop=1;jettySize=auto;html=1;exitX=1;exitY=0.5;exitDx=0;exitDy=0;curved=1;fillColor=#fff2cc;strokeColor=#d6b656;" parent="1" source="O3HgVME_zuuWC6tg6e7_-49" target="O3HgVME_zuuWC6tg6e7_-51" edge="1">
          <mxGeometry relative="1" as="geometry" />
        </mxCell>
        <mxCell id="O3HgVME_zuuWC6tg6e7_-57" value="L&lt;span style=&quot;font-size: 10px;&quot;&gt;stae&lt;/span&gt;" style="text;html=1;align=center;verticalAlign=middle;whiteSpace=wrap;rounded=0;" parent="1" vertex="1">
          <mxGeometry x="490" y="535" width="60" height="30" as="geometry" />
        </mxCell>
        <mxCell id="O3HgVME_zuuWC6tg6e7_-58" style="edgeStyle=orthogonalEdgeStyle;rounded=0;orthogonalLoop=1;jettySize=auto;html=1;exitX=1;exitY=0.5;exitDx=0;exitDy=0;entryX=0.5;entryY=1;entryDx=0;entryDy=0;curved=1;fillColor=#f5f5f5;strokeColor=#666666;" parent="1" source="O3HgVME_zuuWC6tg6e7_-33" target="O3HgVME_zuuWC6tg6e7_-57" edge="1">
          <mxGeometry relative="1" as="geometry" />
        </mxCell>
        <mxCell id="O3HgVME_zuuWC6tg6e7_-59" style="edgeStyle=orthogonalEdgeStyle;rounded=0;orthogonalLoop=1;jettySize=auto;html=1;exitX=1;exitY=0.5;exitDx=0;exitDy=0;curved=1;fillColor=#f5f5f5;strokeColor=#666666;" parent="1" source="O3HgVME_zuuWC6tg6e7_-45" target="O3HgVME_zuuWC6tg6e7_-57" edge="1">
          <mxGeometry relative="1" as="geometry" />
        </mxCell>
        <mxCell id="O3HgVME_zuuWC6tg6e7_-61" style="edgeStyle=orthogonalEdgeStyle;rounded=0;orthogonalLoop=1;jettySize=auto;html=1;exitX=1;exitY=0.25;exitDx=0;exitDy=0;entryX=0;entryY=0.5;entryDx=0;entryDy=0;curved=1;fillColor=#f8cecc;strokeColor=#b85450;" parent="1" source="O3HgVME_zuuWC6tg6e7_-45" target="O3HgVME_zuuWC6tg6e7_-60" edge="1">
          <mxGeometry relative="1" as="geometry" />
        </mxCell>
        <mxCell id="O3HgVME_zuuWC6tg6e7_-62" style="edgeStyle=orthogonalEdgeStyle;rounded=0;orthogonalLoop=1;jettySize=auto;html=1;exitX=0.75;exitY=1;exitDx=0;exitDy=0;entryX=0.25;entryY=0;entryDx=0;entryDy=0;curved=1;fillColor=#f8cecc;strokeColor=#b85450;" parent="1" source="O3HgVME_zuuWC6tg6e7_-49" target="O3HgVME_zuuWC6tg6e7_-60" edge="1">
          <mxGeometry relative="1" as="geometry" />
        </mxCell>
        <mxCell id="O3HgVME_zuuWC6tg6e7_-63" style="edgeStyle=orthogonalEdgeStyle;rounded=0;orthogonalLoop=1;jettySize=auto;html=1;exitX=1;exitY=0.5;exitDx=0;exitDy=0;entryX=0.519;entryY=0.025;entryDx=0;entryDy=0;entryPerimeter=0;" parent="1" source="O3HgVME_zuuWC6tg6e7_-51" target="O3HgVME_zuuWC6tg6e7_-22" edge="1">
          <mxGeometry relative="1" as="geometry" />
        </mxCell>
        <mxCell id="O3HgVME_zuuWC6tg6e7_-64" style="edgeStyle=orthogonalEdgeStyle;rounded=0;orthogonalLoop=1;jettySize=auto;html=1;exitX=1;exitY=0.5;exitDx=0;exitDy=0;entryX=0.024;entryY=0.495;entryDx=0;entryDy=0;entryPerimeter=0;" parent="1" source="O3HgVME_zuuWC6tg6e7_-60" target="O3HgVME_zuuWC6tg6e7_-22" edge="1">
          <mxGeometry relative="1" as="geometry" />
        </mxCell>
        <mxCell id="O3HgVME_zuuWC6tg6e7_-65" style="edgeStyle=orthogonalEdgeStyle;rounded=0;orthogonalLoop=1;jettySize=auto;html=1;exitX=1;exitY=0.5;exitDx=0;exitDy=0;entryX=0.557;entryY=1.079;entryDx=0;entryDy=0;entryPerimeter=0;" parent="1" source="O3HgVME_zuuWC6tg6e7_-57" target="O3HgVME_zuuWC6tg6e7_-22" edge="1">
          <mxGeometry relative="1" as="geometry" />
        </mxCell>
        <mxCell id="O3HgVME_zuuWC6tg6e7_-66" value="L&lt;span style=&quot;font-size: 10px;&quot;&gt;total&lt;/span&gt;" style="text;html=1;align=center;verticalAlign=middle;whiteSpace=wrap;rounded=0;" parent="1" vertex="1">
          <mxGeometry x="690" y="445" width="60" height="30" as="geometry" />
        </mxCell>
        <mxCell id="O3HgVME_zuuWC6tg6e7_-70" value="" style="edgeStyle=orthogonalEdgeStyle;rounded=0;orthogonalLoop=1;jettySize=auto;html=1;exitX=1;exitY=0.5;exitDx=0;exitDy=0;entryX=0;entryY=1;entryDx=0;entryDy=0;curved=1;fillColor=#fff2cc;strokeColor=#d6b656;" parent="1" source="O3HgVME_zuuWC6tg6e7_-37" target="O3HgVME_zuuWC6tg6e7_-51" edge="1">
          <mxGeometry relative="1" as="geometry">
            <mxPoint x="520" y="380" as="targetPoint" />
            <mxPoint x="370" y="535" as="sourcePoint" />
          </mxGeometry>
        </mxCell>
        <mxCell id="O3HgVME_zuuWC6tg6e7_-60" value="L&lt;span style=&quot;font-size: 10px;&quot;&gt;ae&lt;/span&gt;" style="text;html=1;align=center;verticalAlign=middle;whiteSpace=wrap;rounded=0;" parent="1" vertex="1">
          <mxGeometry x="490" y="445" width="60" height="30" as="geometry" />
        </mxCell>
        <mxCell id="O3HgVME_zuuWC6tg6e7_-76" style="edgeStyle=orthogonalEdgeStyle;rounded=0;orthogonalLoop=1;jettySize=auto;html=1;exitX=1;exitY=0.5;exitDx=0;exitDy=0;" parent="1" source="O3HgVME_zuuWC6tg6e7_-71" target="O3HgVME_zuuWC6tg6e7_-73" edge="1">
          <mxGeometry relative="1" as="geometry" />
        </mxCell>
        <mxCell id="O3HgVME_zuuWC6tg6e7_-71" value="depth" style="rounded=0;whiteSpace=wrap;html=1;fillColor=#f8cecc;strokeColor=#b85450;" parent="1" vertex="1">
          <mxGeometry x="188.58" y="790" width="45.71" height="30" as="geometry" />
        </mxCell>
        <mxCell id="O3HgVME_zuuWC6tg6e7_-77" style="edgeStyle=orthogonalEdgeStyle;rounded=0;orthogonalLoop=1;jettySize=auto;html=1;exitX=1;exitY=0.5;exitDx=0;exitDy=0;" parent="1" source="O3HgVME_zuuWC6tg6e7_-72" target="O3HgVME_zuuWC6tg6e7_-73" edge="1">
          <mxGeometry relative="1" as="geometry" />
        </mxCell>
        <mxCell id="O3HgVME_zuuWC6tg6e7_-72" value="NurbsID" style="rounded=0;whiteSpace=wrap;html=1;fillColor=#d5e8d4;strokeColor=#82b366;" parent="1" vertex="1">
          <mxGeometry x="188.58" y="830" width="45.71" height="30" as="geometry" />
        </mxCell>
        <mxCell id="O3HgVME_zuuWC6tg6e7_-78" style="edgeStyle=orthogonalEdgeStyle;rounded=0;orthogonalLoop=1;jettySize=auto;html=1;exitX=1;exitY=0.5;exitDx=0;exitDy=0;exitPerimeter=0;entryX=0;entryY=0.5;entryDx=0;entryDy=0;" parent="1" source="O3HgVME_zuuWC6tg6e7_-73" target="O3HgVME_zuuWC6tg6e7_-75" edge="1">
          <mxGeometry relative="1" as="geometry" />
        </mxCell>
        <mxCell id="O3HgVME_zuuWC6tg6e7_-73" value="" style="outlineConnect=0;dashed=0;verticalLabelPosition=bottom;verticalAlign=top;align=center;html=1;shape=mxgraph.aws3.machine_learning;fillColor=#2E73B8;gradientColor=none;" parent="1" vertex="1">
          <mxGeometry x="334.29" y="780" width="76.5" height="93" as="geometry" />
        </mxCell>
        <mxCell id="O3HgVME_zuuWC6tg6e7_-74" value="" style="rounded=0;whiteSpace=wrap;html=1;" parent="1" vertex="1">
          <mxGeometry x="504.29" y="811.5" width="45.71" height="30" as="geometry" />
        </mxCell>
        <mxCell id="O3HgVME_zuuWC6tg6e7_-75" value="" style="rounded=0;whiteSpace=wrap;html=1;fillColor=#000000;" parent="1" vertex="1">
          <mxGeometry x="504.29" y="811.5" width="20" height="30" as="geometry" />
        </mxCell>
        <mxCell id="DKTI8owrDRF7W_VHkosv-152" style="edgeStyle=orthogonalEdgeStyle;rounded=0;orthogonalLoop=1;jettySize=auto;html=1;exitX=0;exitY=0.5;exitDx=0;exitDy=0;entryX=1;entryY=0.5;entryDx=0;entryDy=0;" edge="1" parent="1" source="DKTI8owrDRF7W_VHkosv-21" target="DKTI8owrDRF7W_VHkosv-105">
          <mxGeometry relative="1" as="geometry" />
        </mxCell>
        <mxCell id="DKTI8owrDRF7W_VHkosv-21" value="" style="rounded=0;whiteSpace=wrap;html=1;" vertex="1" parent="1">
          <mxGeometry x="425" y="1080" width="20" height="20" as="geometry" />
        </mxCell>
        <mxCell id="DKTI8owrDRF7W_VHkosv-149" style="edgeStyle=orthogonalEdgeStyle;rounded=0;orthogonalLoop=1;jettySize=auto;html=1;" edge="1" parent="1" source="DKTI8owrDRF7W_VHkosv-22" target="DKTI8owrDRF7W_VHkosv-147">
          <mxGeometry relative="1" as="geometry" />
        </mxCell>
        <mxCell id="DKTI8owrDRF7W_VHkosv-22" value="" style="rounded=0;whiteSpace=wrap;html=1;fillColor=#000000;" vertex="1" parent="1">
          <mxGeometry x="445.00000000000006" y="1080" width="20" height="20" as="geometry" />
        </mxCell>
        <mxCell id="DKTI8owrDRF7W_VHkosv-151" style="edgeStyle=orthogonalEdgeStyle;rounded=0;orthogonalLoop=1;jettySize=auto;html=1;exitX=0;exitY=0.5;exitDx=0;exitDy=0;entryX=1;entryY=0.5;entryDx=0;entryDy=0;" edge="1" parent="1" source="DKTI8owrDRF7W_VHkosv-23" target="DKTI8owrDRF7W_VHkosv-106">
          <mxGeometry relative="1" as="geometry" />
        </mxCell>
        <mxCell id="DKTI8owrDRF7W_VHkosv-23" value="" style="rounded=0;whiteSpace=wrap;html=1;" vertex="1" parent="1">
          <mxGeometry x="425" y="1100" width="20" height="20" as="geometry" />
        </mxCell>
        <mxCell id="DKTI8owrDRF7W_VHkosv-150" style="edgeStyle=orthogonalEdgeStyle;rounded=0;orthogonalLoop=1;jettySize=auto;html=1;exitX=1;exitY=0.5;exitDx=0;exitDy=0;" edge="1" parent="1" source="DKTI8owrDRF7W_VHkosv-24" target="DKTI8owrDRF7W_VHkosv-148">
          <mxGeometry relative="1" as="geometry" />
        </mxCell>
        <mxCell id="DKTI8owrDRF7W_VHkosv-24" value="" style="rounded=0;whiteSpace=wrap;html=1;" vertex="1" parent="1">
          <mxGeometry x="444.79" y="1100" width="20" height="20" as="geometry" />
        </mxCell>
        <mxCell id="DKTI8owrDRF7W_VHkosv-25" value="" style="rounded=0;whiteSpace=wrap;html=1;fillColor=#f8cecc;strokeColor=#b85450;" vertex="1" parent="1">
          <mxGeometry x="275" y="940" width="60" height="60" as="geometry" />
        </mxCell>
        <mxCell id="DKTI8owrDRF7W_VHkosv-26" value="" style="rounded=0;whiteSpace=wrap;html=1;fillColor=#f8cecc;strokeColor=#b85450;" vertex="1" parent="1">
          <mxGeometry x="275" y="940" width="20" height="20" as="geometry" />
        </mxCell>
        <mxCell id="DKTI8owrDRF7W_VHkosv-27" value="" style="rounded=0;whiteSpace=wrap;html=1;fillColor=#f8cecc;strokeColor=#b85450;" vertex="1" parent="1">
          <mxGeometry x="295" y="940" width="20" height="20" as="geometry" />
        </mxCell>
        <mxCell id="DKTI8owrDRF7W_VHkosv-28" value="" style="rounded=0;whiteSpace=wrap;html=1;fillColor=#f8cecc;strokeColor=#b85450;" vertex="1" parent="1">
          <mxGeometry x="315" y="940" width="20" height="20" as="geometry" />
        </mxCell>
        <mxCell id="DKTI8owrDRF7W_VHkosv-29" value="" style="rounded=0;whiteSpace=wrap;html=1;fillColor=#f8cecc;strokeColor=#b85450;" vertex="1" parent="1">
          <mxGeometry x="275" y="960" width="20" height="20" as="geometry" />
        </mxCell>
        <mxCell id="DKTI8owrDRF7W_VHkosv-30" value="" style="rounded=0;whiteSpace=wrap;html=1;fillColor=#f8cecc;strokeColor=#b85450;" vertex="1" parent="1">
          <mxGeometry x="294.79" y="960" width="20" height="20" as="geometry" />
        </mxCell>
        <mxCell id="DKTI8owrDRF7W_VHkosv-31" value="" style="rounded=0;whiteSpace=wrap;html=1;fillColor=#f8cecc;strokeColor=#b85450;" vertex="1" parent="1">
          <mxGeometry x="314.79" y="960" width="20" height="20" as="geometry" />
        </mxCell>
        <mxCell id="DKTI8owrDRF7W_VHkosv-32" value="" style="rounded=0;whiteSpace=wrap;html=1;fillColor=#f8cecc;strokeColor=#b85450;" vertex="1" parent="1">
          <mxGeometry x="274.79" y="980" width="20" height="20" as="geometry" />
        </mxCell>
        <mxCell id="DKTI8owrDRF7W_VHkosv-33" value="" style="rounded=0;whiteSpace=wrap;html=1;fillColor=#f8cecc;strokeColor=#b85450;" vertex="1" parent="1">
          <mxGeometry x="294.79" y="980" width="20" height="20" as="geometry" />
        </mxCell>
        <mxCell id="DKTI8owrDRF7W_VHkosv-34" value="" style="rounded=0;whiteSpace=wrap;html=1;fillColor=#f8cecc;strokeColor=#b85450;" vertex="1" parent="1">
          <mxGeometry x="314.79" y="980" width="20" height="20" as="geometry" />
        </mxCell>
        <mxCell id="DKTI8owrDRF7W_VHkosv-35" value="" style="rounded=0;whiteSpace=wrap;html=1;fillColor=#d5e8d4;strokeColor=#82b366;" vertex="1" parent="1">
          <mxGeometry x="274.79" y="1020" width="60" height="60" as="geometry" />
        </mxCell>
        <mxCell id="DKTI8owrDRF7W_VHkosv-36" value="" style="rounded=0;whiteSpace=wrap;html=1;fillColor=#d5e8d4;strokeColor=#82b366;" vertex="1" parent="1">
          <mxGeometry x="274.79" y="1020" width="20" height="20" as="geometry" />
        </mxCell>
        <mxCell id="DKTI8owrDRF7W_VHkosv-37" value="" style="rounded=0;whiteSpace=wrap;html=1;fillColor=#d5e8d4;strokeColor=#82b366;" vertex="1" parent="1">
          <mxGeometry x="294.79" y="1020" width="20" height="20" as="geometry" />
        </mxCell>
        <mxCell id="DKTI8owrDRF7W_VHkosv-38" value="" style="rounded=0;whiteSpace=wrap;html=1;fillColor=#d5e8d4;strokeColor=#82b366;" vertex="1" parent="1">
          <mxGeometry x="314.79" y="1020" width="20" height="20" as="geometry" />
        </mxCell>
        <mxCell id="DKTI8owrDRF7W_VHkosv-39" value="" style="rounded=0;whiteSpace=wrap;html=1;fillColor=#d5e8d4;strokeColor=#82b366;" vertex="1" parent="1">
          <mxGeometry x="274.79" y="1040" width="20" height="20" as="geometry" />
        </mxCell>
        <mxCell id="DKTI8owrDRF7W_VHkosv-40" value="" style="rounded=0;whiteSpace=wrap;html=1;fillColor=#d5e8d4;strokeColor=#82b366;" vertex="1" parent="1">
          <mxGeometry x="294.58000000000004" y="1040" width="20" height="20" as="geometry" />
        </mxCell>
        <mxCell id="DKTI8owrDRF7W_VHkosv-41" value="" style="rounded=0;whiteSpace=wrap;html=1;fillColor=#d5e8d4;strokeColor=#82b366;" vertex="1" parent="1">
          <mxGeometry x="314.58000000000004" y="1040" width="20" height="20" as="geometry" />
        </mxCell>
        <mxCell id="DKTI8owrDRF7W_VHkosv-42" value="" style="rounded=0;whiteSpace=wrap;html=1;fillColor=#d5e8d4;strokeColor=#82b366;" vertex="1" parent="1">
          <mxGeometry x="274.58000000000004" y="1060" width="20" height="20" as="geometry" />
        </mxCell>
        <mxCell id="DKTI8owrDRF7W_VHkosv-43" value="" style="rounded=0;whiteSpace=wrap;html=1;fillColor=#d5e8d4;strokeColor=#82b366;" vertex="1" parent="1">
          <mxGeometry x="294.58000000000004" y="1060" width="20" height="20" as="geometry" />
        </mxCell>
        <mxCell id="DKTI8owrDRF7W_VHkosv-44" value="" style="rounded=0;whiteSpace=wrap;html=1;fillColor=#d5e8d4;strokeColor=#82b366;" vertex="1" parent="1">
          <mxGeometry x="314.58000000000004" y="1060" width="20" height="20" as="geometry" />
        </mxCell>
        <mxCell id="DKTI8owrDRF7W_VHkosv-85" value="" style="rounded=0;whiteSpace=wrap;html=1;fillColor=#f8cecc;strokeColor=#b85450;" vertex="1" parent="1">
          <mxGeometry x="274.41999999999996" y="1121" width="60" height="60" as="geometry" />
        </mxCell>
        <mxCell id="DKTI8owrDRF7W_VHkosv-86" value="" style="rounded=0;whiteSpace=wrap;html=1;fillColor=#f8cecc;strokeColor=#b85450;" vertex="1" parent="1">
          <mxGeometry x="274.41999999999996" y="1121" width="20" height="20" as="geometry" />
        </mxCell>
        <mxCell id="DKTI8owrDRF7W_VHkosv-87" value="" style="rounded=0;whiteSpace=wrap;html=1;fillColor=#f8cecc;strokeColor=#b85450;" vertex="1" parent="1">
          <mxGeometry x="294.41999999999996" y="1121" width="20" height="20" as="geometry" />
        </mxCell>
        <mxCell id="DKTI8owrDRF7W_VHkosv-88" value="" style="rounded=0;whiteSpace=wrap;html=1;fillColor=#f8cecc;strokeColor=#b85450;" vertex="1" parent="1">
          <mxGeometry x="314.42" y="1121" width="20" height="20" as="geometry" />
        </mxCell>
        <mxCell id="DKTI8owrDRF7W_VHkosv-89" value="" style="rounded=0;whiteSpace=wrap;html=1;fillColor=#f8cecc;strokeColor=#b85450;" vertex="1" parent="1">
          <mxGeometry x="274.41999999999996" y="1141" width="20" height="20" as="geometry" />
        </mxCell>
        <mxCell id="DKTI8owrDRF7W_VHkosv-90" value="" style="rounded=0;whiteSpace=wrap;html=1;fillColor=#f8cecc;strokeColor=#b85450;" vertex="1" parent="1">
          <mxGeometry x="294.21" y="1141" width="20" height="20" as="geometry" />
        </mxCell>
        <mxCell id="DKTI8owrDRF7W_VHkosv-91" value="" style="rounded=0;whiteSpace=wrap;html=1;fillColor=#f8cecc;strokeColor=#b85450;" vertex="1" parent="1">
          <mxGeometry x="314.21" y="1141" width="20" height="20" as="geometry" />
        </mxCell>
        <mxCell id="DKTI8owrDRF7W_VHkosv-92" value="" style="rounded=0;whiteSpace=wrap;html=1;fillColor=#f8cecc;strokeColor=#b85450;" vertex="1" parent="1">
          <mxGeometry x="274.21" y="1161" width="20" height="20" as="geometry" />
        </mxCell>
        <mxCell id="DKTI8owrDRF7W_VHkosv-93" value="" style="rounded=0;whiteSpace=wrap;html=1;fillColor=#f8cecc;strokeColor=#b85450;" vertex="1" parent="1">
          <mxGeometry x="294.21" y="1161" width="20" height="20" as="geometry" />
        </mxCell>
        <mxCell id="DKTI8owrDRF7W_VHkosv-94" value="" style="rounded=0;whiteSpace=wrap;html=1;fillColor=#f8cecc;strokeColor=#b85450;" vertex="1" parent="1">
          <mxGeometry x="314.21" y="1161" width="20" height="20" as="geometry" />
        </mxCell>
        <mxCell id="DKTI8owrDRF7W_VHkosv-95" value="" style="rounded=0;whiteSpace=wrap;html=1;fillColor=#d5e8d4;strokeColor=#82b366;" vertex="1" parent="1">
          <mxGeometry x="274.21" y="1201" width="60" height="60" as="geometry" />
        </mxCell>
        <mxCell id="DKTI8owrDRF7W_VHkosv-96" value="" style="rounded=0;whiteSpace=wrap;html=1;fillColor=#d5e8d4;strokeColor=#82b366;" vertex="1" parent="1">
          <mxGeometry x="274.21" y="1201" width="20" height="20" as="geometry" />
        </mxCell>
        <mxCell id="DKTI8owrDRF7W_VHkosv-97" value="" style="rounded=0;whiteSpace=wrap;html=1;fillColor=#d5e8d4;strokeColor=#82b366;" vertex="1" parent="1">
          <mxGeometry x="294.21" y="1201" width="20" height="20" as="geometry" />
        </mxCell>
        <mxCell id="DKTI8owrDRF7W_VHkosv-98" value="" style="rounded=0;whiteSpace=wrap;html=1;fillColor=#d5e8d4;strokeColor=#82b366;" vertex="1" parent="1">
          <mxGeometry x="314.21" y="1201" width="20" height="20" as="geometry" />
        </mxCell>
        <mxCell id="DKTI8owrDRF7W_VHkosv-99" value="" style="rounded=0;whiteSpace=wrap;html=1;fillColor=#d5e8d4;strokeColor=#82b366;" vertex="1" parent="1">
          <mxGeometry x="274.21" y="1221" width="20" height="20" as="geometry" />
        </mxCell>
        <mxCell id="DKTI8owrDRF7W_VHkosv-100" value="" style="rounded=0;whiteSpace=wrap;html=1;fillColor=#d5e8d4;strokeColor=#82b366;" vertex="1" parent="1">
          <mxGeometry x="294" y="1221" width="20" height="20" as="geometry" />
        </mxCell>
        <mxCell id="DKTI8owrDRF7W_VHkosv-101" value="" style="rounded=0;whiteSpace=wrap;html=1;fillColor=#d5e8d4;strokeColor=#82b366;" vertex="1" parent="1">
          <mxGeometry x="314.00000000000006" y="1221" width="20" height="20" as="geometry" />
        </mxCell>
        <mxCell id="DKTI8owrDRF7W_VHkosv-102" value="" style="rounded=0;whiteSpace=wrap;html=1;fillColor=#d5e8d4;strokeColor=#82b366;" vertex="1" parent="1">
          <mxGeometry x="274" y="1241" width="20" height="20" as="geometry" />
        </mxCell>
        <mxCell id="DKTI8owrDRF7W_VHkosv-103" value="" style="rounded=0;whiteSpace=wrap;html=1;fillColor=#d5e8d4;strokeColor=#82b366;" vertex="1" parent="1">
          <mxGeometry x="294" y="1241" width="20" height="20" as="geometry" />
        </mxCell>
        <mxCell id="DKTI8owrDRF7W_VHkosv-104" value="" style="rounded=0;whiteSpace=wrap;html=1;fillColor=#d5e8d4;strokeColor=#82b366;" vertex="1" parent="1">
          <mxGeometry x="314.00000000000006" y="1241" width="20" height="20" as="geometry" />
        </mxCell>
        <mxCell id="DKTI8owrDRF7W_VHkosv-105" value="true" style="rounded=0;whiteSpace=wrap;html=1;fillColor=none;" vertex="1" parent="1">
          <mxGeometry x="259.29" y="920" width="90" height="180" as="geometry" />
        </mxCell>
        <mxCell id="DKTI8owrDRF7W_VHkosv-106" value="true" style="rounded=0;whiteSpace=wrap;html=1;fillColor=none;" vertex="1" parent="1">
          <mxGeometry x="259.29" y="1100" width="90" height="180" as="geometry" />
        </mxCell>
        <mxCell id="DKTI8owrDRF7W_VHkosv-107" value="" style="rounded=0;whiteSpace=wrap;html=1;fillColor=#f8cecc;strokeColor=#b85450;" vertex="1" parent="1">
          <mxGeometry x="575.7099999999999" y="940" width="60" height="60" as="geometry" />
        </mxCell>
        <mxCell id="DKTI8owrDRF7W_VHkosv-108" value="" style="rounded=0;whiteSpace=wrap;html=1;fillColor=#f8cecc;strokeColor=#b85450;" vertex="1" parent="1">
          <mxGeometry x="575.7099999999999" y="940" width="20" height="20" as="geometry" />
        </mxCell>
        <mxCell id="DKTI8owrDRF7W_VHkosv-109" value="" style="rounded=0;whiteSpace=wrap;html=1;fillColor=#f8cecc;strokeColor=#b85450;" vertex="1" parent="1">
          <mxGeometry x="595.7099999999999" y="940" width="20" height="20" as="geometry" />
        </mxCell>
        <mxCell id="DKTI8owrDRF7W_VHkosv-110" value="" style="rounded=0;whiteSpace=wrap;html=1;fillColor=#f8cecc;strokeColor=#b85450;" vertex="1" parent="1">
          <mxGeometry x="615.7099999999999" y="940" width="20" height="20" as="geometry" />
        </mxCell>
        <mxCell id="DKTI8owrDRF7W_VHkosv-111" value="" style="rounded=0;whiteSpace=wrap;html=1;fillColor=#f8cecc;strokeColor=#b85450;" vertex="1" parent="1">
          <mxGeometry x="575.7099999999999" y="960" width="20" height="20" as="geometry" />
        </mxCell>
        <mxCell id="DKTI8owrDRF7W_VHkosv-112" value="" style="rounded=0;whiteSpace=wrap;html=1;fillColor=#f8cecc;strokeColor=#b85450;" vertex="1" parent="1">
          <mxGeometry x="595.4999999999999" y="960" width="20" height="20" as="geometry" />
        </mxCell>
        <mxCell id="DKTI8owrDRF7W_VHkosv-113" value="" style="rounded=0;whiteSpace=wrap;html=1;fillColor=#f8cecc;strokeColor=#b85450;" vertex="1" parent="1">
          <mxGeometry x="615.5" y="960" width="20" height="20" as="geometry" />
        </mxCell>
        <mxCell id="DKTI8owrDRF7W_VHkosv-114" value="" style="rounded=0;whiteSpace=wrap;html=1;fillColor=#f8cecc;strokeColor=#b85450;" vertex="1" parent="1">
          <mxGeometry x="575.4999999999999" y="980" width="20" height="20" as="geometry" />
        </mxCell>
        <mxCell id="DKTI8owrDRF7W_VHkosv-115" value="" style="rounded=0;whiteSpace=wrap;html=1;fillColor=#f8cecc;strokeColor=#b85450;" vertex="1" parent="1">
          <mxGeometry x="595.4999999999999" y="980" width="20" height="20" as="geometry" />
        </mxCell>
        <mxCell id="DKTI8owrDRF7W_VHkosv-116" value="" style="rounded=0;whiteSpace=wrap;html=1;fillColor=#f8cecc;strokeColor=#b85450;" vertex="1" parent="1">
          <mxGeometry x="615.5" y="980" width="20" height="20" as="geometry" />
        </mxCell>
        <mxCell id="DKTI8owrDRF7W_VHkosv-117" value="" style="rounded=0;whiteSpace=wrap;html=1;fillColor=#d5e8d4;strokeColor=#82b366;" vertex="1" parent="1">
          <mxGeometry x="575.4999999999999" y="1020" width="60" height="60" as="geometry" />
        </mxCell>
        <mxCell id="DKTI8owrDRF7W_VHkosv-118" value="" style="rounded=0;whiteSpace=wrap;html=1;fillColor=#d5e8d4;strokeColor=#82b366;" vertex="1" parent="1">
          <mxGeometry x="575.4999999999999" y="1020" width="20" height="20" as="geometry" />
        </mxCell>
        <mxCell id="DKTI8owrDRF7W_VHkosv-119" value="" style="rounded=0;whiteSpace=wrap;html=1;fillColor=#d5e8d4;strokeColor=#82b366;" vertex="1" parent="1">
          <mxGeometry x="595.4999999999999" y="1020" width="20" height="20" as="geometry" />
        </mxCell>
        <mxCell id="DKTI8owrDRF7W_VHkosv-120" value="" style="rounded=0;whiteSpace=wrap;html=1;fillColor=#d5e8d4;strokeColor=#82b366;" vertex="1" parent="1">
          <mxGeometry x="615.5" y="1020" width="20" height="20" as="geometry" />
        </mxCell>
        <mxCell id="DKTI8owrDRF7W_VHkosv-121" value="" style="rounded=0;whiteSpace=wrap;html=1;fillColor=#d5e8d4;strokeColor=#82b366;" vertex="1" parent="1">
          <mxGeometry x="575.4999999999999" y="1040" width="20" height="20" as="geometry" />
        </mxCell>
        <mxCell id="DKTI8owrDRF7W_VHkosv-122" value="" style="rounded=0;whiteSpace=wrap;html=1;fillColor=#d5e8d4;strokeColor=#82b366;" vertex="1" parent="1">
          <mxGeometry x="595.29" y="1040" width="20" height="20" as="geometry" />
        </mxCell>
        <mxCell id="DKTI8owrDRF7W_VHkosv-123" value="" style="rounded=0;whiteSpace=wrap;html=1;fillColor=#d5e8d4;strokeColor=#82b366;" vertex="1" parent="1">
          <mxGeometry x="615.29" y="1040" width="20" height="20" as="geometry" />
        </mxCell>
        <mxCell id="DKTI8owrDRF7W_VHkosv-124" value="" style="rounded=0;whiteSpace=wrap;html=1;fillColor=#d5e8d4;strokeColor=#82b366;" vertex="1" parent="1">
          <mxGeometry x="575.29" y="1060" width="20" height="20" as="geometry" />
        </mxCell>
        <mxCell id="DKTI8owrDRF7W_VHkosv-125" value="" style="rounded=0;whiteSpace=wrap;html=1;fillColor=#d5e8d4;strokeColor=#82b366;" vertex="1" parent="1">
          <mxGeometry x="595.29" y="1060" width="20" height="20" as="geometry" />
        </mxCell>
        <mxCell id="DKTI8owrDRF7W_VHkosv-126" value="" style="rounded=0;whiteSpace=wrap;html=1;fillColor=#d5e8d4;strokeColor=#82b366;" vertex="1" parent="1">
          <mxGeometry x="615.29" y="1060" width="20" height="20" as="geometry" />
        </mxCell>
        <mxCell id="DKTI8owrDRF7W_VHkosv-127" value="" style="rounded=0;whiteSpace=wrap;html=1;fillColor=#f8cecc;strokeColor=#b85450;" vertex="1" parent="1">
          <mxGeometry x="575.1299999999999" y="1121" width="60" height="60" as="geometry" />
        </mxCell>
        <mxCell id="DKTI8owrDRF7W_VHkosv-128" value="" style="rounded=0;whiteSpace=wrap;html=1;fillColor=#f8cecc;strokeColor=#b85450;" vertex="1" parent="1">
          <mxGeometry x="575.1299999999999" y="1121" width="20" height="20" as="geometry" />
        </mxCell>
        <mxCell id="DKTI8owrDRF7W_VHkosv-129" value="" style="rounded=0;whiteSpace=wrap;html=1;fillColor=#f8cecc;strokeColor=#b85450;" vertex="1" parent="1">
          <mxGeometry x="595.1299999999999" y="1121" width="20" height="20" as="geometry" />
        </mxCell>
        <mxCell id="DKTI8owrDRF7W_VHkosv-130" value="" style="rounded=0;whiteSpace=wrap;html=1;fillColor=#f8cecc;strokeColor=#b85450;" vertex="1" parent="1">
          <mxGeometry x="615.1299999999999" y="1121" width="20" height="20" as="geometry" />
        </mxCell>
        <mxCell id="DKTI8owrDRF7W_VHkosv-131" value="" style="rounded=0;whiteSpace=wrap;html=1;fillColor=#f8cecc;strokeColor=#b85450;" vertex="1" parent="1">
          <mxGeometry x="575.1299999999999" y="1141" width="20" height="20" as="geometry" />
        </mxCell>
        <mxCell id="DKTI8owrDRF7W_VHkosv-132" value="" style="rounded=0;whiteSpace=wrap;html=1;fillColor=#f8cecc;strokeColor=#b85450;" vertex="1" parent="1">
          <mxGeometry x="594.92" y="1141" width="20" height="20" as="geometry" />
        </mxCell>
        <mxCell id="DKTI8owrDRF7W_VHkosv-133" value="" style="rounded=0;whiteSpace=wrap;html=1;fillColor=#f8cecc;strokeColor=#b85450;" vertex="1" parent="1">
          <mxGeometry x="614.92" y="1141" width="20" height="20" as="geometry" />
        </mxCell>
        <mxCell id="DKTI8owrDRF7W_VHkosv-134" value="" style="rounded=0;whiteSpace=wrap;html=1;fillColor=#f8cecc;strokeColor=#b85450;" vertex="1" parent="1">
          <mxGeometry x="574.92" y="1161" width="20" height="20" as="geometry" />
        </mxCell>
        <mxCell id="DKTI8owrDRF7W_VHkosv-135" value="" style="rounded=0;whiteSpace=wrap;html=1;fillColor=#f8cecc;strokeColor=#b85450;" vertex="1" parent="1">
          <mxGeometry x="594.92" y="1161" width="20" height="20" as="geometry" />
        </mxCell>
        <mxCell id="DKTI8owrDRF7W_VHkosv-136" value="" style="rounded=0;whiteSpace=wrap;html=1;fillColor=#f8cecc;strokeColor=#b85450;" vertex="1" parent="1">
          <mxGeometry x="614.92" y="1161" width="20" height="20" as="geometry" />
        </mxCell>
        <mxCell id="DKTI8owrDRF7W_VHkosv-137" value="" style="rounded=0;whiteSpace=wrap;html=1;fillColor=#d5e8d4;strokeColor=#82b366;" vertex="1" parent="1">
          <mxGeometry x="574.92" y="1201" width="60" height="60" as="geometry" />
        </mxCell>
        <mxCell id="DKTI8owrDRF7W_VHkosv-138" value="" style="rounded=0;whiteSpace=wrap;html=1;fillColor=#d5e8d4;strokeColor=#82b366;" vertex="1" parent="1">
          <mxGeometry x="574.92" y="1201" width="20" height="20" as="geometry" />
        </mxCell>
        <mxCell id="DKTI8owrDRF7W_VHkosv-139" value="" style="rounded=0;whiteSpace=wrap;html=1;fillColor=#d5e8d4;strokeColor=#82b366;" vertex="1" parent="1">
          <mxGeometry x="594.92" y="1201" width="20" height="20" as="geometry" />
        </mxCell>
        <mxCell id="DKTI8owrDRF7W_VHkosv-140" value="" style="rounded=0;whiteSpace=wrap;html=1;fillColor=#d5e8d4;strokeColor=#82b366;" vertex="1" parent="1">
          <mxGeometry x="614.92" y="1201" width="20" height="20" as="geometry" />
        </mxCell>
        <mxCell id="DKTI8owrDRF7W_VHkosv-141" value="" style="rounded=0;whiteSpace=wrap;html=1;fillColor=#d5e8d4;strokeColor=#82b366;" vertex="1" parent="1">
          <mxGeometry x="574.92" y="1221" width="20" height="20" as="geometry" />
        </mxCell>
        <mxCell id="DKTI8owrDRF7W_VHkosv-142" value="" style="rounded=0;whiteSpace=wrap;html=1;fillColor=#d5e8d4;strokeColor=#82b366;" vertex="1" parent="1">
          <mxGeometry x="594.7099999999999" y="1221" width="20" height="20" as="geometry" />
        </mxCell>
        <mxCell id="DKTI8owrDRF7W_VHkosv-143" value="" style="rounded=0;whiteSpace=wrap;html=1;fillColor=#d5e8d4;strokeColor=#82b366;" vertex="1" parent="1">
          <mxGeometry x="614.7099999999999" y="1221" width="20" height="20" as="geometry" />
        </mxCell>
        <mxCell id="DKTI8owrDRF7W_VHkosv-144" value="" style="rounded=0;whiteSpace=wrap;html=1;fillColor=#d5e8d4;strokeColor=#82b366;" vertex="1" parent="1">
          <mxGeometry x="574.7099999999999" y="1241" width="20" height="20" as="geometry" />
        </mxCell>
        <mxCell id="DKTI8owrDRF7W_VHkosv-145" value="" style="rounded=0;whiteSpace=wrap;html=1;fillColor=#d5e8d4;strokeColor=#82b366;" vertex="1" parent="1">
          <mxGeometry x="594.7099999999999" y="1241" width="20" height="20" as="geometry" />
        </mxCell>
        <mxCell id="DKTI8owrDRF7W_VHkosv-146" value="" style="rounded=0;whiteSpace=wrap;html=1;fillColor=#d5e8d4;strokeColor=#82b366;" vertex="1" parent="1">
          <mxGeometry x="614.7099999999999" y="1241" width="20" height="20" as="geometry" />
        </mxCell>
        <mxCell id="DKTI8owrDRF7W_VHkosv-147" value="false" style="rounded=0;whiteSpace=wrap;html=1;fillColor=none;" vertex="1" parent="1">
          <mxGeometry x="560" y="920" width="90" height="180" as="geometry" />
        </mxCell>
        <mxCell id="DKTI8owrDRF7W_VHkosv-148" value="true" style="rounded=0;whiteSpace=wrap;html=1;fillColor=none;" vertex="1" parent="1">
          <mxGeometry x="560" y="1100" width="90" height="180" as="geometry" />
        </mxCell>
        <mxCell id="DKTI8owrDRF7W_VHkosv-153" value="" style="rounded=0;whiteSpace=wrap;html=1;fillColor=#d5e8d4;strokeColor=#82b366;" vertex="1" parent="1">
          <mxGeometry x="67.15000000000003" y="1030" width="20" height="20" as="geometry" />
        </mxCell>
        <mxCell id="DKTI8owrDRF7W_VHkosv-154" value="" style="rounded=0;whiteSpace=wrap;html=1;fillColor=#f8cecc;strokeColor=#b85450;" vertex="1" parent="1">
          <mxGeometry x="67.15000000000003" y="990" width="20" height="20" as="geometry" />
        </mxCell>
        <mxCell id="DKTI8owrDRF7W_VHkosv-155" value="" style="rounded=0;whiteSpace=wrap;html=1;" vertex="1" parent="1">
          <mxGeometry x="67.15" y="1070" width="20" height="20" as="geometry" />
        </mxCell>
        <mxCell id="DKTI8owrDRF7W_VHkosv-156" value="" style="rounded=0;whiteSpace=wrap;html=1;fillColor=#000000;" vertex="1" parent="1">
          <mxGeometry x="67.15000000000006" y="1110" width="20" height="20" as="geometry" />
        </mxCell>
        <mxCell id="DKTI8owrDRF7W_VHkosv-157" value="深度信息" style="text;html=1;align=center;verticalAlign=middle;resizable=0;points=[];autosize=1;strokeColor=none;fillColor=none;" vertex="1" parent="1">
          <mxGeometry x="90" y="985" width="70" height="30" as="geometry" />
        </mxCell>
        <mxCell id="DKTI8owrDRF7W_VHkosv-158" value="NurbsID" style="text;html=1;align=center;verticalAlign=middle;resizable=0;points=[];autosize=1;strokeColor=none;fillColor=none;" vertex="1" parent="1">
          <mxGeometry x="90" y="1025" width="70" height="30" as="geometry" />
        </mxCell>
        <mxCell id="DKTI8owrDRF7W_VHkosv-159" value="正常像素" style="text;html=1;align=center;verticalAlign=middle;resizable=0;points=[];autosize=1;strokeColor=none;fillColor=none;" vertex="1" parent="1">
          <mxGeometry x="90" y="1065" width="70" height="30" as="geometry" />
        </mxCell>
        <mxCell id="DKTI8owrDRF7W_VHkosv-160" value="crack像素" style="text;html=1;align=center;verticalAlign=middle;resizable=0;points=[];autosize=1;strokeColor=none;fillColor=none;" vertex="1" parent="1">
          <mxGeometry x="85" y="1105" width="80" height="30" as="geometry" />
        </mxCell>
      </root>
    </mxGraphModel>
  </diagram>
</mxfile>
